<mxfile host="app.diagrams.net" agent="Mozilla/5.0 (Windows NT 10.0; Win64; x64) AppleWebKit/537.36 (KHTML, like Gecko) Chrome/126.0.0.0 Safari/537.36" version="24.7.4">
  <diagram name="Page-1" id="utTRdys2dHpR44mgXX8j">
    <mxGraphModel dx="1710" dy="746" grid="1" gridSize="10" guides="1" tooltips="1" connect="1" arrows="1" fold="1" page="1" pageScale="1" pageWidth="850" pageHeight="1100" math="0" shadow="0">
      <root>
        <mxCell id="0" />
        <mxCell id="1" parent="0" />
        <mxCell id="4uPqQ76hyotT4E6hLAbn-1" value="Admin" style="shape=umlActor;verticalLabelPosition=bottom;verticalAlign=top;html=1;outlineConnect=0;" vertex="1" parent="1">
          <mxGeometry x="90" y="71" width="30" height="60" as="geometry" />
        </mxCell>
        <mxCell id="4uPqQ76hyotT4E6hLAbn-23" style="edgeStyle=orthogonalEdgeStyle;rounded=0;orthogonalLoop=1;jettySize=auto;html=1;entryX=-0.016;entryY=0.514;entryDx=0;entryDy=0;entryPerimeter=0;" edge="1" parent="1" source="4uPqQ76hyotT4E6hLAbn-2" target="4uPqQ76hyotT4E6hLAbn-12">
          <mxGeometry relative="1" as="geometry">
            <mxPoint x="190" y="280" as="targetPoint" />
          </mxGeometry>
        </mxCell>
        <mxCell id="4uPqQ76hyotT4E6hLAbn-2" value="Provider" style="shape=umlActor;verticalLabelPosition=bottom;verticalAlign=top;html=1;outlineConnect=0;" vertex="1" parent="1">
          <mxGeometry x="80" y="250" width="30" height="60" as="geometry" />
        </mxCell>
        <mxCell id="4uPqQ76hyotT4E6hLAbn-25" style="edgeStyle=orthogonalEdgeStyle;rounded=0;orthogonalLoop=1;jettySize=auto;html=1;entryX=0;entryY=0.5;entryDx=0;entryDy=0;" edge="1" parent="1" source="4uPqQ76hyotT4E6hLAbn-3" target="4uPqQ76hyotT4E6hLAbn-14">
          <mxGeometry relative="1" as="geometry" />
        </mxCell>
        <mxCell id="4uPqQ76hyotT4E6hLAbn-26" style="edgeStyle=orthogonalEdgeStyle;rounded=0;orthogonalLoop=1;jettySize=auto;html=1;entryX=0;entryY=0.5;entryDx=0;entryDy=0;" edge="1" parent="1" source="4uPqQ76hyotT4E6hLAbn-3" target="4uPqQ76hyotT4E6hLAbn-15">
          <mxGeometry relative="1" as="geometry" />
        </mxCell>
        <mxCell id="4uPqQ76hyotT4E6hLAbn-3" value="Client" style="shape=umlActor;verticalLabelPosition=bottom;verticalAlign=top;html=1;outlineConnect=0;" vertex="1" parent="1">
          <mxGeometry x="80" y="420" width="30" height="60" as="geometry" />
        </mxCell>
        <mxCell id="4uPqQ76hyotT4E6hLAbn-27" style="edgeStyle=orthogonalEdgeStyle;rounded=0;orthogonalLoop=1;jettySize=auto;html=1;entryX=0;entryY=0.5;entryDx=0;entryDy=0;" edge="1" parent="1" source="4uPqQ76hyotT4E6hLAbn-4" target="4uPqQ76hyotT4E6hLAbn-17">
          <mxGeometry relative="1" as="geometry" />
        </mxCell>
        <mxCell id="4uPqQ76hyotT4E6hLAbn-4" value="Unknown" style="shape=umlActor;verticalLabelPosition=bottom;verticalAlign=top;html=1;outlineConnect=0;" vertex="1" parent="1">
          <mxGeometry x="84" y="580" width="30" height="60" as="geometry" />
        </mxCell>
        <mxCell id="4uPqQ76hyotT4E6hLAbn-7" value="&lt;font style=&quot;font-size: 9px;&quot;&gt;Authorised&lt;/font&gt;" style="text;html=1;align=center;verticalAlign=middle;whiteSpace=wrap;rounded=0;" vertex="1" parent="1">
          <mxGeometry x="77.5" y="150" width="55" height="20" as="geometry" />
        </mxCell>
        <mxCell id="4uPqQ76hyotT4E6hLAbn-8" value="&lt;font style=&quot;font-size: 9px;&quot;&gt;Authorised&lt;/font&gt;" style="text;html=1;align=center;verticalAlign=middle;whiteSpace=wrap;rounded=0;" vertex="1" parent="1">
          <mxGeometry x="65" y="330" width="55" height="20" as="geometry" />
        </mxCell>
        <mxCell id="4uPqQ76hyotT4E6hLAbn-9" value="&lt;font style=&quot;font-size: 9px;&quot;&gt;Authorised&lt;/font&gt;" style="text;html=1;align=center;verticalAlign=middle;whiteSpace=wrap;rounded=0;" vertex="1" parent="1">
          <mxGeometry x="67.5" y="500" width="55" height="20" as="geometry" />
        </mxCell>
        <mxCell id="4uPqQ76hyotT4E6hLAbn-10" value="&lt;font style=&quot;font-size: 9px;&quot;&gt;Unauthorised&lt;/font&gt;" style="text;html=1;align=center;verticalAlign=middle;whiteSpace=wrap;rounded=0;" vertex="1" parent="1">
          <mxGeometry x="71.5" y="660" width="55" height="20" as="geometry" />
        </mxCell>
        <mxCell id="4uPqQ76hyotT4E6hLAbn-11" value="Manage All Access&amp;nbsp;" style="rounded=1;whiteSpace=wrap;html=1;" vertex="1" parent="1">
          <mxGeometry x="240" y="80" width="210" height="50" as="geometry" />
        </mxCell>
        <mxCell id="4uPqQ76hyotT4E6hLAbn-12" value="Give loan for Farmers" style="rounded=1;whiteSpace=wrap;html=1;" vertex="1" parent="1">
          <mxGeometry x="240" y="220" width="210" height="50" as="geometry" />
        </mxCell>
        <mxCell id="4uPqQ76hyotT4E6hLAbn-13" value="Seek multiple providers&lt;div&gt;to make joined Loan Providence&lt;/div&gt;" style="rounded=1;whiteSpace=wrap;html=1;" vertex="1" parent="1">
          <mxGeometry x="240" y="290" width="210" height="50" as="geometry" />
        </mxCell>
        <mxCell id="4uPqQ76hyotT4E6hLAbn-14" value="Can get loan from Providers" style="rounded=1;whiteSpace=wrap;html=1;" vertex="1" parent="1">
          <mxGeometry x="240" y="400" width="210" height="50" as="geometry" />
        </mxCell>
        <mxCell id="4uPqQ76hyotT4E6hLAbn-15" value="Seek multiple farmers&lt;div&gt;to make joined Loan Requirement&lt;/div&gt;" style="rounded=1;whiteSpace=wrap;html=1;" vertex="1" parent="1">
          <mxGeometry x="240" y="467" width="210" height="50" as="geometry" />
        </mxCell>
        <mxCell id="4uPqQ76hyotT4E6hLAbn-17" value="Can see farmers and providers&lt;div&gt;but can&#39;t see personal details&lt;/div&gt;" style="rounded=1;whiteSpace=wrap;html=1;" vertex="1" parent="1">
          <mxGeometry x="240" y="585" width="210" height="50" as="geometry" />
        </mxCell>
        <mxCell id="4uPqQ76hyotT4E6hLAbn-28" style="edgeStyle=orthogonalEdgeStyle;rounded=0;orthogonalLoop=1;jettySize=auto;html=1;entryX=1;entryY=0.5;entryDx=0;entryDy=0;" edge="1" parent="1" source="4uPqQ76hyotT4E6hLAbn-19" target="4uPqQ76hyotT4E6hLAbn-11">
          <mxGeometry relative="1" as="geometry" />
        </mxCell>
        <mxCell id="4uPqQ76hyotT4E6hLAbn-29" style="edgeStyle=orthogonalEdgeStyle;rounded=0;orthogonalLoop=1;jettySize=auto;html=1;entryX=1;entryY=0.5;entryDx=0;entryDy=0;" edge="1" parent="1" source="4uPqQ76hyotT4E6hLAbn-19" target="4uPqQ76hyotT4E6hLAbn-12">
          <mxGeometry relative="1" as="geometry" />
        </mxCell>
        <mxCell id="4uPqQ76hyotT4E6hLAbn-30" style="edgeStyle=orthogonalEdgeStyle;rounded=0;orthogonalLoop=1;jettySize=auto;html=1;entryX=1;entryY=0.5;entryDx=0;entryDy=0;" edge="1" parent="1" source="4uPqQ76hyotT4E6hLAbn-19" target="4uPqQ76hyotT4E6hLAbn-13">
          <mxGeometry relative="1" as="geometry" />
        </mxCell>
        <mxCell id="4uPqQ76hyotT4E6hLAbn-31" style="edgeStyle=orthogonalEdgeStyle;rounded=0;orthogonalLoop=1;jettySize=auto;html=1;entryX=1;entryY=0.5;entryDx=0;entryDy=0;" edge="1" parent="1" source="4uPqQ76hyotT4E6hLAbn-19" target="4uPqQ76hyotT4E6hLAbn-14">
          <mxGeometry relative="1" as="geometry" />
        </mxCell>
        <mxCell id="4uPqQ76hyotT4E6hLAbn-32" style="edgeStyle=orthogonalEdgeStyle;rounded=0;orthogonalLoop=1;jettySize=auto;html=1;entryX=1;entryY=0.5;entryDx=0;entryDy=0;" edge="1" parent="1" source="4uPqQ76hyotT4E6hLAbn-19" target="4uPqQ76hyotT4E6hLAbn-15">
          <mxGeometry relative="1" as="geometry" />
        </mxCell>
        <mxCell id="4uPqQ76hyotT4E6hLAbn-19" value="Authentication Required" style="ellipse;whiteSpace=wrap;html=1;" vertex="1" parent="1">
          <mxGeometry x="660" y="230" width="120" height="80" as="geometry" />
        </mxCell>
        <mxCell id="4uPqQ76hyotT4E6hLAbn-22" style="edgeStyle=orthogonalEdgeStyle;rounded=0;orthogonalLoop=1;jettySize=auto;html=1;entryX=-0.009;entryY=0.431;entryDx=0;entryDy=0;entryPerimeter=0;" edge="1" parent="1" source="4uPqQ76hyotT4E6hLAbn-1" target="4uPqQ76hyotT4E6hLAbn-11">
          <mxGeometry relative="1" as="geometry" />
        </mxCell>
        <mxCell id="4uPqQ76hyotT4E6hLAbn-24" style="edgeStyle=orthogonalEdgeStyle;rounded=0;orthogonalLoop=1;jettySize=auto;html=1;entryX=-0.011;entryY=0.45;entryDx=0;entryDy=0;entryPerimeter=0;" edge="1" parent="1" source="4uPqQ76hyotT4E6hLAbn-2" target="4uPqQ76hyotT4E6hLAbn-13">
          <mxGeometry relative="1" as="geometry" />
        </mxCell>
      </root>
    </mxGraphModel>
  </diagram>
</mxfile>
